<svg xmlns="http://www.w3.org/2000/svg" width="800" height="600" viewBox="0 0 800 600"><defs><linearGradient id="g" x1="0" y1="0" x2="0" y2="1"><stop offset="0" stop-color="#02111f"/><stop offset="0.5" stop-color="#0a2c4d"/><stop offset="1" stop-color="#05386b"/></linearGradient></defs><rect width="800" height="600" fill="url(#g)"/><g opacity="0.8"><path d="M0 260 Q120 180 240 260 T480 250 T720 260 T800 240 V600 H0 Z" fill="#38e8a0" opacity="0.28"/><path d="M0 300 Q140 220 280 300 T560 290 T800 300 V600 H0 Z" fill="#4dd0e1" opacity="0.3"/><path d="M0 350 Q160 270 320 350 T640 340 T800 350 V600 H0 Z" fill="#8a5cff" opacity="0.3"/><path d="M0 410 Q180 330 360 410 T720 400 T800 410 V600 H0 Z" fill="#ff4fd8" opacity="0.24"/></g><g fill="#fff"><circle cx="120" cy="100" r="2.5"/><circle cx="300" cy="70" r="2"/><circle cx="480" cy="120" r="2.5"/><circle cx="650" cy="60" r="2"/><circle cx="720" cy="160" r="2"/><circle cx="200" cy="180" r="2"/></g><path d="M0 520 Q200 460 400 520 T800 500 V600 H0 Z" fill="#010a16"/><g fill="#052a4d"><path d="M540 600 l30 -90 l-12 -2 l-22 92 Z"/><path d="M600 600 l36 -100 l-13 -2 l-26 102 Z"/></g></svg>