<svg xmlns="http://www.w3.org/2000/svg" width="800" height="600" viewBox="0 0 800 600"><defs><linearGradient id="g" x1="0" y1="0" x2="0" y2="1"><stop offset="0" stop-color="#ffd6ec"/><stop offset="1" stop-color="#ffb3d1"/></linearGradient></defs><rect width="800" height="600" fill="url(#g)"/><g fill="#ff8fc0"><circle cx="160" cy="140" r="22"/><circle cx="200" cy="110" r="16"/><circle cx="230" cy="150" r="18"/><circle cx="500" cy="90" r="18"/><circle cx="540" cy="70" r="14"/><circle cx="570" cy="100" r="16"/><circle cx="640" cy="420" r="16"/><circle cx="670" cy="390" r="12"/><circle cx="700" cy="430" r="14"/></g><g fill="#ff5c9e"><circle cx="170" cy="130" r="8"/><circle cx="520" cy="80" r="8"/><circle cx="660" cy="410" r="8"/></g><path d="M0 480 Q150 420 300 480 T600 470 T800 490 V600 H0 Z" fill="#ff9ac8"/><g fill="#c94f7c"><circle cx="90" cy="90" r="4" opacity="0.8"/><circle cx="360" cy="180" r="4" opacity="0.8"/><circle cx="700" cy="200" r="4" opacity="0.8"/><circle cx="450" cy="480" r="4" opacity="0.8"/></g><g fill="none" stroke="#fff" stroke-width="3" opacity="0.7"><path d="M80 540 q20 -14 40 0 t40 0"/><path d="M540 500 q20 -14 40 0 t40 0"/></g></svg>